<svg width="150" height="150" viewBox="0 0 150 150" fill="none" xmlns="http://www.w3.org/2000/svg">
<path fill-rule="evenodd" clip-rule="evenodd" d="M22 0C9.84974 0 0 9.84973 0 22V128C0 140.15 9.84973 150 22 150H128C140.15 150 150 140.15 150 128V22C150 9.84974 140.15 0 128 0H22ZM41 51C47.0751 51 52 46.0751 52 40C52 33.9249 47.0751 29 41 29C34.9249 29 30 33.9249 30 40C30 46.0751 34.9249 51 41 51ZM31 60H50V120.2H31V60ZM78.5 86.9997C78.4661 87.5083 78.4328 87.9616 78.4 88.363V120H60V88V60H77.3V68.6216C78.1644 67.5644 80.8346 64.5177 84.5 62.3999C84.5727 62.3579 84.6434 62.3169 84.713 62.2765C85.5108 61.8131 86.1604 61.4358 88 60.6999C88.9713 60.3374 90.2037 59.9335 92 59.4999C92.4946 59.3805 93.032 59.324 93.6184 59.2623C94.196 59.2015 94.8212 59.1358 95.5 59L100 59.0002C100.114 59.0256 100.351 59.0738 100.661 59.1371C101.708 59.3507 103.599 59.7363 104.5 60C108.5 61.5 110.6 63 113.5 65.5C116.4 68 120 75.5 120 80.5V87.9997H101.9C101.9 71.7497 79.5 71.9997 78.5 86.9997ZM120 88H101.9V120.2H120V88Z" fill="white"/>
</svg>
